<?xml version="1.0" encoding="UTF-8"?>
<svg width="512" height="512" viewBox="0 0 512 512" xmlns="http://www.w3.org/2000/svg">
  <!-- Background circle -->
  <circle cx="256" cy="256" r="240" fill="#007AFF"/>
  
  <!-- Calendar icon -->
  <rect x="160" y="160" width="192" height="140" rx="8" fill="white" stroke="#0056CC" stroke-width="4"/>
  <rect x="160" y="160" width="192" height="40" rx="8" fill="#0056CC"/>
  
  <!-- Calendar dots -->
  <circle cx="200" cy="180" r="4" fill="white"/>
  <circle cx="220" cy="180" r="4" fill="white"/>
  <circle cx="240" cy="180" r="4" fill="white"/>
  <circle cx="260" cy="180" r="4" fill="white"/>
  
  <!-- Calendar grid -->
  <line x1="180" y1="220" x2="180" y2="280" stroke="#0056CC" stroke-width="2"/>
  <line x1="220" y1="220" x2="220" y2="280" stroke="#0056CC" stroke-width="2"/>
  <line x1="260" y1="220" x2="260" y2="280" stroke="#0056CC" stroke-width="2"/>
  <line x1="300" y1="220" x2="300" y2="280" stroke="#0056CC" stroke-width="2"/>
  
  <line x1="160" y1="220" x2="352" y2="220" stroke="#0056CC" stroke-width="2"/>
  <line x1="160" y1="250" x2="352" y2="250" stroke="#0056CC" stroke-width="2"/>
  <line x1="160" y1="280" x2="352" y2="280" stroke="#0056CC" stroke-width="2"/>
  
  <!-- Checkmark -->
  <path d="M 200 250 L 240 280 L 320 220" stroke="#00CC44" stroke-width="8" stroke-linecap="round" stroke-linejoin="round" fill="none"/>
  
  <!-- Sports ball -->
  <circle cx="256" cy="340" r="30" fill="#FF6B35"/>
  <path d="M 256 310 Q 286 310 286 340 Q 286 370 256 370 Q 226 370 226 340 Q 226 310 256 310" fill="none" stroke="white" stroke-width="3"/>
  <path d="M 226 340 Q 256 340 286 340" fill="none" stroke="white" stroke-width="3"/>
</svg> 