<?xml version="1.0" encoding="UTF-8"?>
<svg width="512" height="512" viewBox="0 0 512 512" xmlns="http://www.w3.org/2000/svg">
  <!-- Background circle -->
  <circle cx="256" cy="256" r="240" fill="#007AFF"/>
  
  <!-- Calendar -->
  <rect x="180" y="160" width="152" height="120" rx="6" fill="white" stroke="#0056CC" stroke-width="2"/>
  <rect x="180" y="160" width="152" height="28" rx="6" fill="#0056CC"/>
  
  <!-- Calendar grid -->
  <line x1="200" y1="200" x2="200" y2="260" stroke="#0056CC" stroke-width="1.5"/>
  <line x1="240" y1="200" x2="240" y2="260" stroke="#0056CC" stroke-width="1.5"/>
  <line x1="280" y1="200" x2="280" y2="260" stroke="#0056CC" stroke-width="1.5"/>
  <line x1="320" y1="200" x2="320" y2="260" stroke="#0056CC" stroke-width="1.5"/>
  
  <line x1="180" y1="200" x2="332" y2="200" stroke="#0056CC" stroke-width="1.5"/>
  <line x1="180" y1="220" x2="332" y2="220" stroke="#0056CC" stroke-width="1.5"/>
  <line x1="180" y1="240" x2="332" y2="240" stroke="#0056CC" stroke-width="1.5"/>
  <line x1="180" y1="260" x2="332" y2="260" stroke="#0056CC" stroke-width="1.5"/>
  
  <!-- Sports ball -->
  <circle cx="256" cy="320" r="20" fill="#FF6B35"/>
  <path d="M 256 300 Q 276 300 276 320 Q 276 340 256 340 Q 236 340 236 320 Q 236 300 256 300" fill="none" stroke="white" stroke-width="1.5"/>
  <path d="M 236 320 Q 256 320 276 320" fill="none" stroke="white" stroke-width="1.5"/>
</svg> 