<svg width="1024" height="1024" viewBox="0 0 1024 1024" xmlns="http://www.w3.org/2000/svg">
  <defs>
    <linearGradient id="courtGradient" x1="0%" y1="0%" x2="100%" y2="100%">
      <stop offset="0%" style="stop-color:#4A90E2;stop-opacity:1" />
      <stop offset="100%" style="stop-color:#357ABD;stop-opacity:1" />
    </linearGradient>
    <linearGradient id="gearGradient" x1="0%" y1="0%" x2="100%" y2="100%">
      <stop offset="0%" style="stop-color:#FF6B35;stop-opacity:1" />
      <stop offset="100%" style="stop-color:#E55A2B;stop-opacity:1" />
    </linearGradient>
    <linearGradient id="clockGradient" x1="0%" y1="0%" x2="100%" y2="100%">
      <stop offset="0%" style="stop-color:#34C759;stop-opacity:1" />
      <stop offset="100%" style="stop-color:#28A745;stop-opacity:1" />
    </linearGradient>
  </defs>
  
  <!-- Background circle -->
  <circle cx="512" cy="512" r="480" fill="url(#courtGradient)" stroke="#2C3E50" stroke-width="8"/>
  
  <!-- Sportscourt base -->
  <rect x="200" y="300" width="624" height="424" rx="20" fill="#FFFFFF" stroke="#2C3E50" stroke-width="4"/>
  
  <!-- Court lines -->
  <rect x="220" y="320" width="584" height="384" rx="10" fill="none" stroke="#2C3E50" stroke-width="3"/>
  
  <!-- Center line -->
  <line x1="512" y1="320" x2="512" y2="704" stroke="#2C3E50" stroke-width="3"/>
  
  <!-- Center circle -->
  <circle cx="512" cy="512" r="60" fill="none" stroke="#2C3E50" stroke-width="3"/>
  
  <!-- Basketball hoops (simplified) -->
  <circle cx="280" cy="512" r="25" fill="none" stroke="#FF6B35" stroke-width="4"/>
  <circle cx="744" cy="512" r="25" fill="none" stroke="#FF6B35" stroke-width="4"/>
  
  <!-- Automation gear (top right) -->
  <g transform="translate(700, 200)">
    <circle cx="0" cy="0" r="45" fill="url(#gearGradient)" stroke="#2C3E50" stroke-width="3"/>
    <!-- Gear teeth -->
    <rect x="-4" y="-60" width="8" height="15" fill="#2C3E50"/>
    <rect x="-4" y="45" width="8" height="15" fill="#2C3E50"/>
    <rect x="-60" y="-4" width="15" height="8" fill="#2C3E50"/>
    <rect x="45" y="-4" width="15" height="8" fill="#2C3E50"/>
    <!-- Diagonal teeth -->
    <rect x="-42" y="-42" width="8" height="15" fill="#2C3E50" transform="rotate(45)"/>
    <rect x="34" y="34" width="8" height="15" fill="#2C3E50" transform="rotate(45)"/>
    <rect x="-42" y="34" width="8" height="15" fill="#2C3E50" transform="rotate(-45)"/>
    <rect x="34" y="-42" width="8" height="15" fill="#2C3E50" transform="rotate(-45)"/>
    <!-- Center circle -->
    <circle cx="0" cy="0" r="15" fill="#FFFFFF" stroke="#2C3E50" stroke-width="2"/>
  </g>
  
  <!-- Clock (bottom left) -->
  <g transform="translate(200, 700)">
    <circle cx="0" cy="0" r="45" fill="url(#clockGradient)" stroke="#2C3E50" stroke-width="3"/>
    <!-- Clock hands -->
    <line x1="0" y1="0" x2="0" y2="-25" stroke="#2C3E50" stroke-width="3" stroke-linecap="round"/>
    <line x1="0" y1="0" x2="15" y2="0" stroke="#2C3E50" stroke-width="3" stroke-linecap="round"/>
    <!-- Center dot -->
    <circle cx="0" cy="0" r="4" fill="#2C3E50"/>
  </g>
  
  <!-- Automation arrows -->
  <g stroke="#FF6B35" stroke-width="4" fill="none" stroke-linecap="round" stroke-linejoin="round">
    <!-- Arrow from gear to court -->
    <path d="M 680 220 Q 650 280 600 320"/>
    <polygon points="600,320 605,310 595,310" fill="#FF6B35"/>
    
    <!-- Arrow from clock to court -->
    <path d="M 245 680 Q 280 650 320 600"/>
    <polygon points="320,600 310,605 310,595" fill="#FF6B35"/>
  </g>
  
  <!-- Digital elements (conveyor belt style) -->
  <g fill="#34C759" opacity="0.8">
    <!-- Small rectangles representing automation -->
    <rect x="350" y="380" width="8" height="4" rx="2"/>
    <rect x="370" y="380" width="8" height="4" rx="2"/>
    <rect x="390" y="380" width="8" height="4" rx="2"/>
    
    <rect x="650" y="380" width="8" height="4" rx="2"/>
    <rect x="670" y="380" width="8" height="4" rx="2"/>
    <rect x="690" y="380" width="8" height="4" rx="2"/>
    
    <rect x="350" y="620" width="8" height="4" rx="2"/>
    <rect x="370" y="620" width="8" height="4" rx="2"/>
    <rect x="390" y="620" width="8" height="4" rx="2"/>
    
    <rect x="650" y="620" width="8" height="4" rx="2"/>
    <rect x="670" y="620" width="8" height="4" rx="2"/>
    <rect x="690" y="620" width="8" height="4" rx="2"/>
  </g>
</svg> 