<?xml version="1.0" encoding="utf-8" ?><svg xmlns="http://www.w3.org/2000/svg" xmlns:xlink="http://www.w3.org/1999/xlink" width="1024" height="1024" viewBox="0 0 1024 1024"><path fill="#DED7ED" d="M0 0L1024 0L1024 588.728C1021.39 584.976 1019.07 574.318 1017.53 569.515C1006.92 536.406 997.095 507.989 959.163 498.891C935.665 493.255 910.03 505.435 889.777 516.711C870.258 528.423 856.627 544.994 852.24 567.569C848.703 585.776 848.729 604.575 853.404 622.75L852.943 623.236C850.41 625.859 847.77 628.106 845.029 630.485C828.486 644.849 816.691 670.752 815.862 692.641C813.076 692.613 806.32 689.848 803.21 689.365C802.677 689.282 798.168 692.233 796.186 691.264C790.463 688.466 776.415 693.567 772.43 691.081C771.746 689.312 772.095 689.587 772.816 687.26L772.332 686.612C770.758 687.662 771.233 688.929 769.513 690.862L768.714 690.294C768.304 687.126 770.619 686.746 772.376 683.977C770.806 679.295 774.565 677.768 771.045 672.488C771.463 673.114 772.629 670.565 772.7 670.378C772.18 669.144 772.109 669.182 772.115 667.868L773.249 667.185C771.214 656.652 773.471 648.318 772.393 638.749C771.834 638.172 771.452 637.83 770.812 637.39L772.326 636.127L773.394 636.529C773.031 634.849 771.346 633.402 770.029 632.431C771.909 632.8 771.057 632.914 772.695 632.31C773.081 630.105 772.213 630.238 771.343 627.532C772.113 626.066 772.178 626.172 771.973 624.555L772.731 623.167L772.002 621.911C772.461 620.439 772.501 620.986 772.27 619.603C771.116 620.519 771.522 620.373 770.208 620.841C770.814 618.259 772.37 619.474 772.511 616.799C770.933 614.293 770.774 615.103 771.673 612.441C773.171 608.007 772.312 599.672 772.682 594.812C771.678 593.868 771.956 594.223 771.228 593.022C772.239 590.277 773.2 588.137 772.517 585.281C771.726 584.936 771.368 584.852 770.538 584.702L770.502 583.812C771.458 582.585 772.052 582.056 772.347 580.524C771.217 579.756 771.529 580.155 770.924 579C771.507 578.595 772.08 578.178 772.645 577.749L772.221 577.014L770.642 577.234L770.703 576.407C772.011 574.587 772.746 573.919 772.228 571.625L770.781 571.774L770.709 570.837C774.492 565.288 772.241 564.797 771.559 558.804C771.419 557.569 772.87 555.675 772.375 552.806C771.278 552.051 771.588 552.423 770.977 551.247C771.063 550.537 771.182 549.16 771.582 548.63C773.869 545.597 770.601 539.635 770.57 535.986C771.011 535.492 771.451 534.998 771.891 534.503C771.776 531.642 771.797 527.029 772.01 524.317C772.274 520.97 772.179 520.691 770.807 517.972L770.446 517.272C771.295 515.35 770.661 516.138 772.55 514.939L772.639 514.257L771.651 513.816C771.119 511.59 772.892 505.828 772.319 501.668C771.076 500.792 771.349 501.131 770.456 499.981C771.64 499.509 771.197 499.908 771.958 498.974L771.005 497.461C772.951 494.643 772.086 483.669 772.28 479.405C771.478 478.263 771.07 477.966 770.996 476.598C771.808 475.105 772.53 474.218 772.387 472.559C769.286 469.776 773.544 468.669 772.551 465.779L770.273 464.802C771.439 462.669 772.721 461.424 771.894 459.037C770.941 456.287 772.213 453.869 771.904 451.556C771.508 451.966 771.143 452.227 770.928 452.767C770.436 451.801 772.257 441.155 772.35 438.816C771.149 437.188 770.37 436.691 770.717 434.763C773.814 432.943 771.093 434.049 771.479 429.514C772.592 416.434 771.476 403.502 771.674 390.43C771.698 388.807 772.056 387.771 773.303 386.704C775.503 386.017 778.634 384.864 780.546 385.823L781.136 385.587C780.174 368.683 781.685 351.126 780.924 334.204C780.802 331.498 780.186 329.186 780.961 326.531C782.322 321.87 779.941 316.365 780.572 311.528C780.905 308.83 782.713 305.929 781.169 303.444C778.862 298.854 780.961 292.262 780.25 286.217C778.643 284.617 777.1 284.181 775.042 283.261C772.552 282.148 772.579 282.839 770.112 283.886C766.276 280.502 769.693 265.356 768.353 259.316C766.77 251.239 763.964 244.006 760.391 236.678C758.559 232.921 759.61 231.234 756.196 227.905C755.978 227.692 754.049 218.698 753.399 217.04C747.333 201.566 743.033 185.401 737.098 169.87C736.482 168.255 735.812 171.433 735.284 167.937C734.086 159.999 733.984 119.438 731.211 115.498L730.688 115.916C730.141 118.853 729.964 122.194 729.952 125.199C729.911 135.47 727.617 145.413 727.616 155.624C727.616 158.753 727.513 162.326 727.17 165.406C723.947 165.921 725.428 169.225 724.489 171.723C721.956 178.463 718.68 184.88 717.099 191.955C717.061 192.126 715.574 193.302 715.451 193.396L716.408 194.059C716.833 195.593 714.607 200.24 714.34 202.066C713.96 204.662 711.887 205.504 711.08 207.793L711.955 208.072C711.73 210.062 709.709 211.908 709.185 213.756C707.268 220.519 705.45 226.043 702.946 232.708C699.978 239.951 696.374 245.937 694.264 253.53C692.308 260.566 694.953 280.809 691.943 285.933L690.916 286.668C690.348 284.359 690.794 284.452 689.33 283.463C687.356 283.505 684.346 283.461 682.791 284.567C682.285 294.129 681.249 303.614 682.066 313.126C682.201 314.696 682.488 316.905 682.081 318.303L680.504 319.252C680.528 321.832 682.842 322.707 681.971 323.714C679.664 326.383 682.959 331.254 682.344 334.283L681.209 333.439C680.773 339.91 683.925 345.423 681.129 351.189L681.363 351.911L683.248 352.405L683.535 352.97L682.018 353.403C681.598 356.172 681.205 358.945 680.839 361.722L682.096 362.434C682.094 364.096 682.403 363.446 681.558 364.597L680.651 364.962C680.525 369.656 681.027 373.443 681.18 377.664C681.258 379.822 680.347 381.751 680.497 385.958C683.025 385.821 685.171 385.489 687.557 386.239C690.498 389.2 687.466 457.308 688.677 466.072C688.984 468.296 687.685 471.198 687.529 473.405C687.422 474.518 688.971 476.885 688.47 479.007L687.229 479.745C687.113 481.753 688.924 485.556 689.752 487.65C688.519 491.447 687.512 492.767 689.502 496.529C689.14 498.662 687.084 500.531 687.597 502.12C688.299 504.29 688.937 504.848 688.911 507.243L688.494 507.825L687.327 507.364L687.234 508.077C688.231 508.509 689.107 508.926 690.001 509.544C690.428 511.738 689.239 512.408 687.688 513.728C689.315 515.708 689.399 513.48 689.406 515.587L688.008 516.293L688.167 516.853L689.155 517.28C688.812 519.195 687.32 526.227 687.533 527.583C689.127 528.865 688.73 528.086 689.086 529.811C688.492 531.165 688.431 531.191 687.508 532.367C687.772 535.517 689.144 552.091 688.399 554.026C684.612 550.573 681.262 546.368 677.498 542.752C643.012 509.619 597.72 483.789 549.859 477.282C542.616 476.297 532.921 474.388 525.808 475.363C524.422 474.474 523.509 474.448 521.897 474.165C448.703 471.103 391.932 503.055 341.442 553.774C335.116 549.564 332.277 550.721 327.538 556.255C324.453 559.858 319.885 566.145 319.687 570.942L320.775 571.72C320.823 573.639 319.744 575.258 318.816 576.966C318.783 578.946 319.254 579.624 320.054 581.506C319.006 583.845 314.633 592.847 312.951 594.059L312.549 594.102C308.699 594.16 306.194 596.785 303.515 599.679C298.417 605.185 295.152 608.459 295.35 616.306C295.456 620.53 296.659 626.476 295.819 630.211C295.513 631.571 295.544 632.242 295.572 633.612C295.041 636.344 294.348 640.518 293.548 643.031C290.995 643.127 288.512 643.242 285.955 643.211C286.728 639.272 286.442 634.828 286.487 630.773C286.599 620.713 288.233 611.908 282.352 602.943L282.665 601.43C280.498 598.981 279.429 599.317 277.379 596.387C274.978 596.646 270.988 597.478 269.107 595.794C269.815 583.487 270.008 568.955 268.295 556.78C267.557 551.536 255.637 539.881 251.477 536.95C247.086 540.288 234.897 554.998 235.263 559.753C236.003 569.377 234.028 587.486 235.363 596.419C225.902 595.599 223.033 596.273 217.222 604.669L217.943 606.599C216.925 607.767 216.065 608.837 215.107 610.055C215.256 611.568 215.188 611.029 216.022 612.476C215.451 615.149 214.184 616.287 214.448 618.292C215.058 622.93 214.85 654.175 213.317 656.556L212.298 656.932C210.648 655.984 210.087 653.552 209.487 651.706C206.884 650.612 206.305 650.488 204.18 648.745L203.266 646.923C202.127 642.419 203.367 635.633 202.721 630.852C202.548 629.571 202.621 626.52 201.939 625.544C198.8 621.056 194.414 616.942 190.334 613.328C186.953 612.551 184.926 614.079 181.823 615.64L181.924 615.172C183.12 609.811 185.249 604.791 186.032 599.329C193.577 546.698 153.661 503.929 104.595 492.586C87.9602 488.74 71.9792 488.172 57.0946 497.776C32.3156 513.213 20.7433 536.279 14.4176 563.832C10.7047 580.004 8.52658 593.873 11.402 610.326C12.7178 617.855 12.1905 620.506 15.7118 628.05C9.7946 633.992 5.72357 638.095 0 644.28L0 0Z"/><path fill="#CC9883" d="M691.943 285.933C694.953 280.809 692.308 260.566 694.264 253.53C696.374 245.937 699.978 239.951 702.946 232.708C705.45 226.043 707.268 220.519 709.185 213.756C709.709 211.908 711.73 210.062 711.955 208.072L711.08 207.793C711.887 205.504 713.96 204.662 714.34 202.066C714.607 200.24 716.833 195.593 716.408 194.059L715.451 193.396C715.574 193.302 717.061 192.126 717.099 191.955C718.68 184.88 721.956 178.463 724.489 171.723C725.428 169.225 723.947 165.921 727.17 165.406C727.513 162.326 727.616 158.753 727.616 155.624C727.617 145.413 729.911 135.47 729.952 125.199C729.964 122.194 730.141 118.853 730.688 115.916L731.211 115.498C733.984 119.438 734.086 159.999 735.284 167.937C735.812 171.433 736.482 168.255 737.098 169.87C743.033 185.401 747.333 201.566 753.399 217.04C754.049 218.698 755.978 227.692 756.196 227.905C759.61 231.234 758.559 232.921 760.391 236.678C763.964 244.006 766.77 251.239 768.353 259.316C769.693 265.356 766.276 280.502 770.112 283.886C772.579 282.839 772.552 282.148 775.042 283.261C777.1 284.181 778.643 284.617 780.25 286.217C780.961 292.262 778.862 298.854 781.169 303.444C782.713 305.929 780.905 308.83 780.572 311.528C779.941 316.365 782.322 321.87 780.961 326.531C780.186 329.186 780.802 331.498 780.924 334.204C781.685 351.126 780.174 368.683 781.136 385.587L780.546 385.823C778.634 384.864 775.503 386.017 773.303 386.704C772.056 387.771 771.698 388.807 771.674 390.43C771.476 403.502 772.592 416.434 771.479 429.514C771.093 434.049 773.814 432.943 770.717 434.763C770.37 436.691 771.149 437.188 772.35 438.816C772.257 441.155 770.436 451.801 770.928 452.767C771.143 452.227 771.508 451.966 771.904 451.556C772.213 453.869 770.941 456.287 771.894 459.037C772.721 461.424 771.439 462.669 770.273 464.802L772.551 465.779C773.544 468.669 769.286 469.776 772.387 472.559C772.53 474.218 771.808 475.105 770.996 476.598C771.07 477.966 771.478 478.263 772.28 479.405C772.086 483.669 772.951 494.643 771.005 497.461L771.958 498.974C771.197 499.908 771.64 499.509 770.456 499.981C771.349 501.131 771.076 500.792 772.319 501.668C772.892 505.828 771.119 511.59 771.651 513.816L772.639 514.257L772.55 514.939C770.661 516.138 771.295 515.35 770.446 517.272L770.807 517.972C772.179 520.691 772.274 520.97 772.01 524.317C771.797 527.029 771.776 531.642 771.891 534.503C771.451 534.998 771.011 535.492 770.57 535.986C770.601 539.635 773.869 545.597 771.582 548.63C771.182 549.16 771.063 550.537 770.977 551.247C771.588 552.423 771.278 552.051 772.375 552.806C772.87 555.675 771.419 557.569 771.559 558.804C772.241 564.797 774.492 565.288 770.709 570.837L770.781 571.774L772.228 571.625C772.746 573.919 772.011 574.587 770.703 576.407L770.642 577.234L772.221 577.014L772.645 577.749C772.08 578.178 771.507 578.595 770.924 579C771.529 580.155 771.217 579.756 772.347 580.524C772.052 582.056 771.458 582.585 770.502 583.812L770.538 584.702C771.368 584.852 771.726 584.936 772.517 585.281C773.2 588.137 772.239 590.277 771.228 593.022C771.956 594.223 771.678 593.868 772.682 594.812C772.312 599.672 773.171 608.007 771.673 612.441C770.774 615.103 770.933 614.293 772.511 616.799C772.37 619.474 770.814 618.259 770.208 620.841C771.522 620.373 771.116 620.519 772.27 619.603C772.501 620.986 772.461 620.439 772.002 621.911L772.731 623.167L771.973 624.555C769.966 626.391 766.87 630.092 770.029 632.431C771.346 633.402 773.031 634.849 773.394 636.529L772.326 636.127L770.812 637.39C771.452 637.83 771.834 638.172 772.393 638.749C773.471 648.318 771.214 656.652 773.249 667.185L772.115 667.868C772.109 669.182 772.18 669.144 772.7 670.378C772.629 670.565 771.463 673.114 771.045 672.488C774.565 677.768 770.806 679.295 772.376 683.977C770.619 686.746 768.304 687.126 768.714 690.294L769.513 690.862C771.233 688.929 770.758 687.662 772.332 686.612L772.816 687.26C772.095 689.587 771.746 689.312 772.43 691.081C776.415 693.567 790.463 688.466 796.186 691.264C798.168 692.233 802.677 689.282 803.21 689.365C806.32 689.848 813.076 692.613 815.862 692.641C812.83 742.133 830.872 771.437 879.308 782.458C883.753 783.469 888.42 783.303 892.854 785.012C891.56 786.134 890.317 787.126 889.204 788.429C890.232 788.337 889.828 788.417 890.776 787.767C891.166 788.8 890.465 790.191 889.672 790.886C889.551 790.852 886.427 789.965 886.591 789.966C884.997 789.952 880.99 792.414 879.881 792.033L880.323 791.123C875.56 794.473 866.798 789.525 861.825 791.482C859.986 792.206 856.977 792.741 855.14 791.771L854.703 790.773C853.157 791.479 851.677 792.514 850.127 792.303L850.839 791.051L849.965 790.712C848.821 791.278 848.351 791.524 847.157 791.991L846.55 791.643C840.226 788.081 841.834 792.345 837.272 792.113C835.772 791.201 835.816 791.098 834.842 789.709C833.167 791.352 833.551 791.97 831.947 792.03L831.408 791.266C830.767 790.373 830.694 790.271 829.739 789.665L829.13 790.352C829.679 791.796 829.844 791.349 829.469 792.32C826.97 792.274 814.489 792.304 813.125 791.576L812.925 790.586L812.241 790.861C810.673 791.484 809.377 792.223 807.822 792.056L807.209 790.032C804.143 791.019 805.251 792.32 802.639 792.339L802.09 791.184C798.25 792.06 788.497 790.666 786.84 791.539L786.543 792.564C784.448 792.268 781.855 790.027 780.512 790.89C774.376 794.833 775.142 791.044 772.499 790.14C771.554 790.949 771.222 791.338 770.396 792.28C767.532 792.138 767.542 790.004 764.659 790.03L764.267 790.586L764.865 792.114C763.682 792.558 762.9 792.156 761.651 791.8L760.571 790.204L760.003 790.266L759.84 791.56C756.797 791.581 756.164 789.932 754.661 792.66L754.349 792.758C753.772 791.985 753.295 791.323 752.761 790.52L751.397 790.759C751.178 791.935 751.218 791.371 751.24 792.447C748.414 792.114 747.452 790.625 745.175 791.19L745.216 792.415L744.214 792.529C744.052 792.056 743.889 791.584 743.726 791.112C742.689 791.67 743.044 791.384 742.372 792.411C736.309 792.57 736.868 788.915 730.241 792.201C727.835 791.967 725.672 791.754 723.246 791.661L722.448 790.979C721.244 791.202 721.622 791.059 720.608 791.635C731.238 765.931 738.915 740.082 740.489 712.218C741.954 686.304 738.738 651.949 728.966 627.842L727.972 627.476C727.402 625.585 728.266 623.641 727.417 621.303C722.274 607.134 715.616 593.471 707.736 580.624C703.877 574.332 697.966 568.371 694.625 562.027L694.291 561.381L694.73 560.699C693.808 559.932 693.324 559.432 692.59 558.484C690.465 557.099 689.164 556.484 688.399 554.026C689.144 552.091 687.772 535.517 687.508 532.367C688.431 531.191 688.492 531.165 689.086 529.811C688.73 528.086 689.127 528.865 687.533 527.583C687.32 526.227 688.812 519.195 689.155 517.28L688.167 516.853L688.008 516.293L689.406 515.587C689.399 513.48 689.315 515.708 687.688 513.728C689.239 512.408 690.428 511.738 690.001 509.544C689.107 508.926 688.231 508.509 687.234 508.077L687.327 507.364L688.494 507.825L688.911 507.243C688.937 504.848 688.299 504.29 687.597 502.12C687.084 500.531 689.14 498.662 689.502 496.529C687.512 492.767 688.519 491.447 689.752 487.65C688.924 485.556 687.113 481.753 687.229 479.745L688.47 479.007C688.971 476.885 687.422 474.518 687.529 473.405C687.685 471.198 688.984 468.296 688.677 466.072C687.466 457.308 690.498 389.2 687.557 386.239C685.171 385.489 683.025 385.821 680.497 385.958C680.347 381.751 681.258 379.822 681.18 377.664C681.027 373.443 680.525 369.656 680.651 364.962L681.558 364.597C682.403 363.446 682.094 364.096 682.096 362.434L680.839 361.722C681.205 358.945 681.598 356.172 682.018 353.403L683.535 352.97L683.248 352.405L681.363 351.911L681.129 351.189C683.925 345.423 680.773 339.91 681.209 333.439L682.344 334.283C682.959 331.254 679.664 326.383 681.971 323.714C682.842 322.707 680.528 321.832 680.504 319.252L682.081 318.303C682.488 316.905 682.201 314.696 682.066 313.126C681.249 303.614 682.285 294.129 682.791 284.567C684.346 283.461 687.356 283.505 689.33 283.463C690.794 284.452 690.348 284.359 690.916 286.668C691.061 289.849 689.08 297.72 692.299 299.028C696.238 297.933 696.755 299.624 699.262 298.701C701.412 295.823 700.966 288.253 697.876 285.921C696.035 284.532 693.918 285.411 691.943 285.933ZM707.479 259.815C702.591 264.464 704.007 269.905 704.627 276.089C706.318 277.581 707.254 278.52 709.221 279.642C710.35 279.15 711.903 278.759 712.164 277.429C713.363 271.312 714.432 262.394 707.479 259.815ZM727.541 259.737C724.625 263.313 723.259 274.502 726.102 277.784C727.977 278.599 729.53 278.241 731.612 278.075L732.694 277.639C734.101 273.585 733.833 266.395 732.059 262.48C731.097 260.355 729.65 260.059 727.541 259.737ZM747.785 259.915C745.522 263.154 744.709 265.781 744.52 269.681C744.199 276.296 745.428 279.22 752.248 278.733C755.885 275.397 755.371 264.757 752.15 261.025C751.271 260.007 749.107 260.006 747.785 259.915ZM759.965 283.89C757.127 286.268 756.479 288.178 756.52 291.778C756.581 297.186 758.512 299.205 763.377 299.46C764.811 298.763 765.503 298.564 765.831 296.839C766.936 291.018 767.346 284.145 759.965 283.89ZM715.674 284.32C712.598 286.577 712.551 286.621 711.998 290.364C711.588 293.138 711.418 295.571 712.698 298.201C713.586 300.024 715.446 299.961 717.108 299.887C718.318 299.512 720.407 299.193 720.812 297.863C722.438 292.531 723.033 284.484 715.674 284.32ZM737.536 284.489C734.653 287.031 734.709 288.174 734.414 291.939C733.721 300.756 737.516 298.172 740.846 300.022C742.495 299.127 743.609 298.878 744.025 296.842C745.214 291.021 745.061 283.98 737.536 284.489ZM725.384 310.698C713.361 312.773 703.77 321.882 701.077 333.782C698.883 343.481 701.607 353.639 708.359 360.94C715.112 368.24 725.027 371.746 734.868 370.313C745.633 368.746 754.722 361.507 758.658 351.365C762.595 341.223 760.769 329.748 753.88 321.328C746.991 312.908 736.104 308.847 725.384 310.698ZM701.409 384.85C698.644 388.614 696.653 398.451 701.621 401.709C702.596 402.349 705.226 402.181 706.398 402.152C708.655 399.451 709.241 389.232 706.363 386.445C705.011 385.137 703.199 384.983 701.409 384.85ZM720.791 385.047C717.838 389.128 715.604 397.862 719.555 401.771C721.837 402.14 722.595 402.093 724.944 402.035C727.838 399.543 727.811 388.614 724.523 385.682C722.75 385.083 722.736 384.987 720.791 385.047ZM759.074 385.525C753.85 388.515 753.342 394.383 755.621 399.697C756.234 401.126 758.485 401.488 759.923 401.552C761.292 401.184 762.856 401.159 763.345 399.661C764.972 394.686 766.419 386.018 759.074 385.525ZM738.718 385.772C735.866 391.218 736.784 395.241 737.422 401.401C740.035 401.579 742.553 401.719 745.153 402.068C745.641 398.242 746.111 392.97 746.006 389.156C741.831 385.736 743.315 387.15 738.718 385.772ZM717.813 426.264C713.636 431.292 716.193 448.44 715.547 455.274C715.346 457.41 718.486 458.517 720.284 458.834C721.095 458.262 723.427 456.873 723.429 455.703C723.446 447.561 724.501 436.314 722.845 428.551C722.553 427.178 718.972 426.498 717.813 426.264ZM737.789 426.176C735.085 433.774 735.82 441.819 736.168 449.745C736.471 456.645 735.826 458.334 743.04 457.724C745.054 453.474 744.594 434.408 743.812 429.091C743.549 427.306 739.522 426.187 737.789 426.176ZM717.531 500.88C714.405 508.733 715.981 516.995 715.78 525.315C715.716 527.984 715.835 532.235 718.145 533.911C719.999 534.185 721.1 533.56 722.876 532.903C724.17 530.995 724.722 510.017 724.004 506.229C723.332 502.691 721.557 500.464 717.531 500.88ZM739.528 500.94C738.457 501.761 736.979 502.761 736.924 504.332C736.617 513.087 735.466 523.262 737.649 531.718C737.898 532.682 742.076 532.214 742.88 532.138C745.976 528.875 746.451 506.832 743.519 502.116C742.724 500.839 740.975 501.044 739.528 500.94ZM769.151 678.772C769.258 680.71 769.302 683.434 769.757 685.247L770.452 685.226C770.909 683.307 771.105 681.061 770.11 679.272L769.151 678.772Z"/><path fill="#F8EEDD" d="M704.627 276.089C704.007 269.905 702.591 264.464 707.479 259.815C714.432 262.394 713.363 271.312 712.164 277.429C711.903 278.759 710.35 279.15 709.221 279.642C707.254 278.52 706.318 277.581 704.627 276.089Z"/><path fill="#F8EEDD" d="M731.612 278.075C729.53 278.241 727.977 278.599 726.102 277.784C723.259 274.502 724.625 263.313 727.541 259.737C729.65 260.059 731.097 260.355 732.059 262.48C733.833 266.395 734.101 273.585 732.694 277.639L731.612 278.075Z"/><path fill="#F8EEDD" d="M752.248 278.733C745.428 279.22 744.199 276.296 744.52 269.681C744.709 265.781 745.522 263.154 747.785 259.915C749.107 260.006 751.271 260.007 752.15 261.025C755.371 264.757 755.885 275.397 752.248 278.733Z"/><path fill="#F8EEDD" d="M763.377 299.46C758.512 299.205 756.581 297.186 756.52 291.778C756.479 288.178 757.127 286.268 759.965 283.89C767.346 284.145 766.936 291.018 765.831 296.839C765.503 298.564 764.811 298.763 763.377 299.46Z"/><path fill="#F8EEDD" d="M717.108 299.887C715.446 299.961 713.586 300.024 712.698 298.201C711.418 295.571 711.588 293.138 711.998 290.364C712.551 286.621 712.598 286.577 715.674 284.32C723.033 284.484 722.438 292.531 720.812 297.863C720.407 299.193 718.318 299.512 717.108 299.887Z"/><path fill="#F8EEDD" d="M740.846 300.022C737.516 298.172 733.721 300.756 734.414 291.939C734.709 288.174 734.653 287.031 737.536 284.489C745.061 283.98 745.214 291.021 744.025 296.842C743.609 298.878 742.495 299.127 740.846 300.022Z"/><path fill="#F8EEDD" d="M690.916 286.668L691.943 285.933C693.918 285.411 696.035 284.532 697.876 285.921C700.966 288.253 701.412 295.823 699.262 298.701C696.755 299.624 696.238 297.933 692.299 299.028C689.08 297.72 691.061 289.849 690.916 286.668Z"/><path fill="#FEFCEA" d="M701.077 333.782C703.77 321.882 713.361 312.773 725.384 310.698C736.104 308.847 746.991 312.908 753.88 321.328C760.769 329.748 762.595 341.223 758.658 351.365C754.722 361.507 745.633 368.746 734.868 370.313C725.027 371.746 715.112 368.24 708.359 360.94C701.607 353.639 698.883 343.481 701.077 333.782ZM732.561 322.861C732.624 321.024 732.881 320.048 731.84 318.57C727.916 317.28 727.447 326.465 728.803 328.868C727.642 331.459 728.094 340.388 728.107 343.685L733.854 344.22C737.114 344.765 748.014 346.303 750.345 344.459C750.761 342.632 750.843 343.469 750.338 341.85C744.101 339.045 738.968 341.454 733.349 340.09C732.057 337.161 733.21 328.124 732.561 322.861Z"/><path fill="#161A20" d="M728.803 328.868C727.447 326.465 727.916 317.28 731.84 318.57C732.881 320.048 732.624 321.024 732.561 322.861C732.377 325.053 732.535 329.045 731.854 330.618L730.916 330.809C729.684 329.979 729.717 330.031 728.803 328.868Z"/><path fill="#1E272E" d="M732.561 322.861C733.21 328.124 732.057 337.161 733.349 340.09L733.854 344.22L728.107 343.685C728.094 340.388 727.642 331.459 728.803 328.868C729.717 330.031 729.684 329.979 730.916 330.809L731.854 330.618C732.535 329.045 732.377 325.053 732.561 322.861Z"/><path fill="#161A20" d="M733.349 340.09C738.968 341.454 744.101 339.045 750.338 341.85C750.843 343.469 750.761 342.632 750.345 344.459C748.014 346.303 737.114 344.765 733.854 344.22L733.349 340.09Z"/><path fill="#F8EEDD" d="M706.398 402.152C705.226 402.181 702.596 402.349 701.621 401.709C696.653 398.451 698.644 388.614 701.409 384.85C703.199 384.983 705.011 385.137 706.363 386.445C709.241 389.232 708.655 399.451 706.398 402.152Z"/><path fill="#F8EEDD" d="M724.944 402.035C722.595 402.093 721.837 402.14 719.555 401.771C715.604 397.862 717.838 389.128 720.791 385.047C722.736 384.987 722.75 385.083 724.523 385.682C727.811 388.614 727.838 399.543 724.944 402.035Z"/><path fill="#F8EEDD" d="M759.923 401.552C758.485 401.488 756.234 401.126 755.621 399.697C753.342 394.383 753.85 388.515 759.074 385.525C766.419 386.018 764.972 394.686 763.345 399.661C762.856 401.159 761.292 401.184 759.923 401.552Z"/><path fill="#F8EEDD" d="M737.422 401.401C736.784 395.241 735.866 391.218 738.718 385.772C743.315 387.15 741.831 385.736 746.006 389.156C746.111 392.97 745.641 398.242 745.153 402.068C742.553 401.719 740.035 401.579 737.422 401.401Z"/><path fill="#F8EEDD" d="M720.284 458.834C718.486 458.517 715.346 457.41 715.547 455.274C716.193 448.44 713.636 431.292 717.813 426.264C718.972 426.498 722.553 427.178 722.845 428.551C724.501 436.314 723.446 447.561 723.429 455.703C723.427 456.873 721.095 458.262 720.284 458.834Z"/><path fill="#F8EEDD" d="M743.04 457.724C735.826 458.334 736.471 456.645 736.168 449.745C735.82 441.819 735.085 433.774 737.789 426.176C739.522 426.187 743.549 427.306 743.812 429.091C744.594 434.408 745.054 453.474 743.04 457.724Z"/><path fill="#F8EEDD" d="M341.442 553.774C391.932 503.055 448.703 471.103 521.897 474.165C524.153 477.325 527.422 479.085 530.51 481.391C544.01 491.476 556.7 502.238 568.649 514.12C569.737 515.202 572.271 516.388 573.732 516.974L574.101 517.655L573.666 518.411C576.438 521.837 582.449 527.801 585.824 531.607C586.876 531.414 586.328 531.588 587.443 531.003C590.18 534.232 589.95 540.24 594.672 540.54C597.086 543.214 599.096 546.591 601.782 548.93C604.036 550.891 605.383 554.782 607.308 557.252C610.954 561.931 614.345 566.729 617.899 571.456C620.259 574.594 623.049 577.65 625.113 580.986C626.761 583.65 627.429 587.066 629.114 589.547C631.304 592.771 634.087 593.414 634.97 597.698C635.773 601.595 648.378 617.671 651.386 622.278C654.11 626.451 655.69 631.203 658.734 635.17C657.457 637.109 656.2 639.008 654.465 640.566C647.615 646.719 642.735 654.435 636.042 660.784C628.352 668.08 619.658 674.755 612.455 682.52C600.673 655.476 584.322 634.97 563.833 614.028C552.89 602.842 543.344 591.565 530.093 582.59C524.732 578.958 522.485 573.601 515.615 572.767C515.207 571.82 515.28 572.349 515.574 571.166C514.109 570.176 513.957 570.286 512.235 570.087C510.596 568.044 509.474 566.324 507.158 564.916C465.809 539.783 425.86 519.072 375.244 523.748C385 525.108 397.65 527.375 407.082 530.106C427.334 535.97 475.938 555.676 490.995 569.843L491.628 569.846C495.265 569.9 496.47 571.935 499.452 573.962C514.404 584.128 528.472 595.861 541.402 608.485C547.144 614.26 551.682 617.668 557.165 622.88C563.012 628.437 569.737 637.559 575.116 643.641L611.243 684.153C602.154 687.87 587.553 701.465 578.126 706.905C562.628 715.846 546.525 726.088 531.574 735.964C527.593 730.423 523.315 725.289 519.124 719.926C515.425 715.193 511.993 709.9 507.972 705.442C475.404 669.146 436.63 638.942 393.466 616.248C386.091 612.351 378.717 608.368 371.123 604.912C367.948 603.467 363.577 603.001 360.444 601.683C345.45 595.373 330.049 594.277 314.139 592.317C318.179 593.784 322.682 595.1 326.946 596.289C349.429 602.558 369.364 612.683 389.315 624.542C391.546 625.868 403.445 632.216 404.15 633.317L404.061 635.958C405.017 635.455 404.898 635.479 405.739 634.772C416.929 637.119 463.386 678.427 473.222 687.932C463.77 698.998 448.515 731.572 446.378 746.763C445.795 750.908 443.455 753.212 443.182 755.377C442.329 762.179 440.75 768.665 440.397 775.555C440.318 777.088 438.032 781.054 437.967 782.919C437.789 788.074 438.481 801.842 436.252 805.909C439.095 814.152 435.017 824.018 438.714 829.696C438.485 831.897 437.843 834.997 437.913 837.083C438.001 839.736 441.431 840.014 438.474 842.752C438.188 845.987 439.044 848.617 439.27 851.88L438.828 851.36L439.957 852.5C437.694 856.613 442.347 860.355 441.27 865.664C444.717 871.003 443.385 879.832 446.808 886.817C451.196 895.77 455.522 912.573 463.642 919.295L464.477 919.432L464.963 918.524C462.621 911.542 450.19 857.476 451.809 852.874C453.187 848.953 450.403 843.087 450.004 838.965C449.588 834.656 448.036 814.22 448.605 811.292C448.714 810.732 449.79 809.805 449.807 809.292C449.879 807.24 448.586 804.685 448.476 802.52C448.177 796.623 449.984 790.746 450.189 784.879C450.293 781.889 449.442 778.415 449.839 775.538C450.078 773.804 451.435 772.266 451.62 770.553C452.931 758.394 454.924 744.989 457.955 733.107C460.067 724.826 462.948 716.627 465.611 708.506C467.901 701.524 469.688 694.835 473.501 688.479C474.724 689.802 475.366 690.262 476.783 691.314C485.644 697.892 492.518 706.57 500.16 714.412C504.307 718.577 509.196 723.097 513.483 727.233C517.485 731.093 524.964 736.063 528.276 740.755C526.006 753.216 523.387 766.78 522.563 779.483C522.154 785.785 523.308 793.919 522.399 800.545C522.163 802.27 523.324 806.521 523.298 808.43C524.263 815.525 524.859 822.649 525.476 829.781C526.371 830.935 526.395 830.857 527.678 831.61C528.063 845.821 534.045 848.931 535.163 862.437C535.29 863.964 539.716 866.773 540.58 870.129C544.544 885.532 564.917 908.961 575.718 916.726C574.869 917.253 574.962 917.279 574.025 917.546C478.792 944.712 370.831 905.985 320.476 819.282C314.065 808.243 308.218 798.362 304.337 786.523C298.588 771.996 294.138 756.988 291.037 741.675C285.562 713.711 284.427 670.075 293.548 643.031C294.348 640.518 295.041 636.344 295.572 633.612C299.154 627.35 302.952 615.403 306.093 608.456C308.267 603.648 310.537 598.973 312.549 594.102L312.951 594.059C314.633 592.847 319.006 583.845 320.054 581.506C325.648 573.436 334.821 560.798 341.442 553.774ZM342.895 609.876C340.996 610.074 331.852 620.511 330.018 622.833C317.012 639.295 307.416 657.688 300.837 677.61C298.697 684.23 298.838 691.279 295.462 697.446C295.578 697.235 295.229 703.999 295.185 704.35C293.775 715.711 294.803 727.002 293.967 738.368C293.818 740.393 295.835 740.448 295.744 742.413L294.089 742.02C292.313 743.863 294.048 745.925 295.049 748.225L295.604 748.425C296.537 745.958 297.344 736.417 297.639 732.987C298.361 724.597 302.916 717.458 302.254 709.886C301.848 705.24 306.441 705.185 305.568 697.616C310.223 687.082 311.278 679.93 314.929 670.778C322.191 652.579 333.568 627.264 344.082 610.746L348.266 604.778C345.976 606.428 344.807 607.832 342.895 609.876ZM403.288 636.457C401.374 638.721 394.792 645.911 393.609 647.82C385.635 660.764 378.594 674.372 372.392 688.25C370.967 691.438 369.919 695.821 368.77 699.242C367.242 703.793 364.969 706.447 365.967 711.305C365.368 713.174 364.685 713.659 363.341 715.071C362.633 722.571 364.258 725.637 359.766 731.613C358.613 733.147 361.889 737.2 357.375 741.449C357.025 742.828 358.819 746.275 358.095 746.795C357.369 747.317 357.622 747.13 356.999 747.995C356.701 752.566 358.85 754.244 356.175 759.3C355.968 759.692 355.525 765.467 355.451 766.488C356.343 766.798 355.962 766.612 356.617 767.026C355.732 772.766 354.913 785.481 355.205 791.222C355.803 791.763 356.02 791.943 356.688 792.454C355.702 796.978 354.388 798.501 356.6 801.899C356.925 802.399 357.257 802.895 357.594 803.388C357.855 809.09 355.929 812.283 358.219 818.953C359.068 818.612 358.639 818.835 359.486 818.25C359.924 821.758 357.919 824.154 359.685 828.311C360.979 829.09 360.998 828.975 362.035 830.018L361.563 830.887C359.996 833.837 374.148 864.923 376.391 869.563C377.669 872.206 381.768 877.773 383.284 880.71C384.235 882.345 385.264 884.63 386.812 885.522C387.999 883.839 385.902 878.988 384.866 877.418C382.715 874.157 383.049 870.033 381.917 866.645C379.714 860.05 377.692 853.506 376.135 846.709C375.457 843.75 375.127 843.431 373.071 841.283C373.767 840.499 374.205 839.932 374.698 839.008C373.546 836.012 372.149 838.157 372.236 835.671L373.393 833.72C372.917 832.105 372.657 832.099 371.546 830.735C371.463 829.383 371.521 829.469 372.213 828.279C370.647 821.292 365.86 794.04 367.641 788.386C367.958 787.382 367.731 786.728 367.399 785.798C366.99 784.653 366.074 783.09 366.413 781.936L367.721 781.194C368.207 778.52 366.182 773.465 366.265 770.56C366.309 769.02 367.447 769.227 367.456 768.455C367.581 757.727 368.741 747.998 371.316 737.596C371.891 735.271 370.436 729.655 371.421 727.193C373.093 726.052 373.625 726.173 373.906 724.739C371.059 717.651 378.844 719.846 375.281 712.856C375.896 711.02 378.643 706.525 378.747 705.671C379.778 697.141 383.662 688.872 385.377 680.635L386.962 679.488C387.543 675.741 387.106 673.657 389.276 669.715C390.837 666.879 403.396 638.503 403.288 636.457Z"/><path fill="#CC9883" d="M521.897 474.165C523.509 474.448 524.422 474.474 525.808 475.363C529.945 478.207 538.829 481.283 543.614 483.818C552.21 488.372 559.829 493.609 567.288 499.768C571.408 503.194 575.496 506.659 579.55 510.163C581.873 512.198 583.595 514.971 586.781 515.185L587.237 515.931L586.6 517.395C587.65 519.303 590.973 520.102 592.965 522.015C597.013 525.902 611.937 542.177 613.731 546.205C613.339 547.297 613.544 546.945 612.735 547.851C614.013 547.915 613.602 547.986 614.74 547.577C617.411 549.47 627.163 562.045 628.674 565.042C628.101 566.173 628.442 565.674 627.683 566.56L628.069 567.067L629.471 566.318C636.464 571.44 659.261 622.188 658.967 631.912L658.653 632.509L659.709 633.19C667.189 626.36 679.181 596.358 683.586 585.707C686.985 577.491 687.428 567.507 692.59 558.484C693.324 559.432 693.808 559.932 694.73 560.699L694.291 561.381C693.165 562.814 693.284 562.089 693.34 563.506C693.539 568.577 692.566 574.016 691.778 579.07C688.233 600.82 680 621.54 667.65 639.792C665.022 643.681 661.373 647.252 658.807 651.03C650.606 663.108 638.978 671.586 628.678 681.748C627.207 683.199 624.098 684.605 622.505 686.102C619.417 688.798 616.798 691.474 613.557 694.004C593.929 709.47 572.414 722.376 549.529 732.412C547.217 733.447 535.03 738.62 532.5 740.805C532.355 741.31 532.526 742.599 532.616 743.012C533.804 748.506 531.909 753.711 532.017 759.293C532.139 767.917 532.46 776.758 532.06 785.376C531.919 788.41 533.852 795.518 533.068 797.475C530.165 804.718 535.119 800.19 533.593 806.673C532.788 810.089 535.565 814.91 536.293 818.239C535.91 818.6 535.526 818.96 535.142 819.321C535.542 821.77 537.192 828.644 537.902 830.619C538.714 834.465 540.324 837.739 541.492 841.435C543.737 848.541 547.393 863.883 551.863 869.508L551.084 870.751L551.559 871.448C556.542 878.844 560.57 888.19 565.547 895.797C567.006 898.028 567.94 901.465 569.355 903.809C571.771 908.109 575.105 911.548 576.801 916.363L575.718 916.726C564.917 908.961 544.544 885.532 540.58 870.129C539.716 866.773 535.29 863.964 535.163 862.437C534.045 848.931 528.063 845.821 527.678 831.61C526.395 830.857 526.371 830.935 525.476 829.781C524.859 822.649 524.263 815.525 523.298 808.43C523.324 806.521 522.163 802.27 522.399 800.545C523.308 793.919 522.154 785.785 522.563 779.483C523.387 766.78 526.006 753.216 528.276 740.755C524.964 736.063 517.485 731.093 513.483 727.233C509.196 723.097 504.307 718.577 500.16 714.412C492.518 706.57 485.644 697.892 476.783 691.314C475.366 690.262 474.724 689.802 473.501 688.479C469.688 694.835 467.901 701.524 465.611 708.506C462.948 716.627 460.067 724.826 457.955 733.107C454.924 744.989 452.931 758.394 451.62 770.553C451.435 772.266 450.078 773.804 449.839 775.538C449.442 778.415 450.293 781.889 450.189 784.879C449.984 790.746 448.177 796.623 448.476 802.52C448.586 804.685 449.879 807.24 449.807 809.292C449.79 809.805 448.714 810.732 448.605 811.292C448.036 814.22 449.588 834.656 450.004 838.965C450.403 843.087 453.187 848.953 451.809 852.874C450.19 857.476 462.621 911.542 464.963 918.524L464.477 919.432L463.642 919.295C455.522 912.573 451.196 895.77 446.808 886.817C443.385 879.832 444.717 871.003 441.27 865.664C442.347 860.355 437.694 856.613 439.957 852.5L438.828 851.36L439.27 851.88C439.044 848.617 438.188 845.987 438.474 842.752C441.431 840.014 438.001 839.736 437.913 837.083C437.843 834.997 438.485 831.897 438.714 829.696C435.017 824.018 439.095 814.152 436.252 805.909C438.481 801.842 437.789 788.074 437.967 782.919C438.032 781.054 440.318 777.088 440.397 775.555C440.75 768.665 442.329 762.179 443.182 755.377C443.455 753.212 445.795 750.908 446.378 746.763C448.515 731.572 463.77 698.998 473.222 687.932C463.386 678.427 416.929 637.119 405.739 634.772C404.898 635.479 405.017 635.455 404.061 635.958L404.15 633.317C403.445 632.216 391.546 625.868 389.315 624.542C369.364 612.683 349.429 602.558 326.946 596.289C322.682 595.1 318.179 593.784 314.139 592.317C330.049 594.277 345.45 595.373 360.444 601.683C363.577 603.001 367.948 603.467 371.123 604.912C378.717 608.368 386.091 612.351 393.466 616.248C436.63 638.942 475.404 669.146 507.972 705.442C511.993 709.9 515.425 715.193 519.124 719.926C523.315 725.289 527.593 730.423 531.574 735.964C546.525 726.088 562.628 715.846 578.126 706.905C587.553 701.465 602.154 687.87 611.243 684.153L575.116 643.641C569.737 637.559 563.012 628.437 557.165 622.88C551.682 617.668 547.144 614.26 541.402 608.485C528.472 595.861 514.404 584.128 499.452 573.962C496.47 571.935 495.265 569.9 491.628 569.846L490.995 569.843C475.938 555.676 427.334 535.97 407.082 530.106C397.65 527.375 385 525.108 375.244 523.748C425.86 519.072 465.809 539.783 507.158 564.916C509.474 566.324 510.596 568.044 512.235 570.087C513.957 570.286 514.109 570.176 515.574 571.166C515.28 572.349 515.207 571.82 515.615 572.767C522.485 573.601 524.732 578.958 530.093 582.59C543.344 591.565 552.89 602.842 563.833 614.028C584.322 634.97 600.673 655.476 612.455 682.52C619.658 674.755 628.352 668.08 636.042 660.784C642.735 654.435 647.615 646.719 654.465 640.566C656.2 639.008 657.457 637.109 658.734 635.17C655.69 631.203 654.11 626.451 651.386 622.278C648.378 617.671 635.773 601.595 634.97 597.698C634.087 593.414 631.304 592.771 629.114 589.547C627.429 587.066 626.761 583.65 625.113 580.986C623.049 577.65 620.259 574.594 617.899 571.456C614.345 566.729 610.954 561.931 607.308 557.252C605.383 554.782 604.036 550.891 601.782 548.93C599.096 546.591 597.086 543.214 594.672 540.54C589.95 540.24 590.18 534.232 587.443 531.003C586.328 531.588 586.876 531.414 585.824 531.607C582.449 527.801 576.438 521.837 573.666 518.411L574.101 517.655L573.732 516.974C572.271 516.388 569.737 515.202 568.649 514.12C556.7 502.238 544.01 491.476 530.51 481.391C527.422 479.085 524.153 477.325 521.897 474.165Z"/><path fill="#F8EEDD" d="M525.808 475.363C532.921 474.388 542.616 476.297 549.859 477.282C597.72 483.789 643.012 509.619 677.498 542.752C681.262 546.368 684.612 550.573 688.399 554.026C689.164 556.484 690.465 557.099 692.59 558.484C687.428 567.507 686.985 577.491 683.586 585.707C679.181 596.358 667.189 626.36 659.709 633.19L658.653 632.509L658.967 631.912C659.261 622.188 636.464 571.44 629.471 566.318L628.069 567.067L627.683 566.56C628.442 565.674 628.101 566.173 628.674 565.042C627.163 562.045 617.411 549.47 614.74 547.577C613.602 547.986 614.013 547.915 612.735 547.851C613.544 546.945 613.339 547.297 613.731 546.205C611.937 542.177 597.013 525.902 592.965 522.015C590.973 520.102 587.65 519.303 586.6 517.395L587.237 515.931L586.781 515.185C583.595 514.971 581.873 512.198 579.55 510.163C575.496 506.659 571.408 503.194 567.288 499.768C559.829 493.609 552.21 488.372 543.614 483.818C538.829 481.283 529.945 478.207 525.808 475.363Z"/><path fill="#C6F16B" d="M15.7118 628.05C12.1905 620.506 12.7178 617.855 11.402 610.326C8.52658 593.873 10.7047 580.004 14.4176 563.832C20.7433 536.279 32.3156 513.213 57.0946 497.776C71.9792 488.172 87.9602 488.74 104.595 492.586C153.661 503.929 193.577 546.698 186.032 599.329C185.249 604.791 183.12 609.811 181.924 615.172L181.823 615.64L180.295 619.989C188.866 628.536 196.313 636.961 203.266 646.923L204.18 648.745C206.086 653.669 209.146 661.298 210.112 666.351C214.33 688.408 215.833 715.023 206.585 735.839C199.022 752.86 180.205 768.398 163.177 774.986C155.26 778.049 142.288 781.274 134.035 782.311C127.862 782.497 111.855 781.823 107.209 783.318C106.666 780.629 106.319 771.49 106.575 768.727C107.306 766.028 104.982 760.23 105.39 758.035C107.299 747.763 115.414 737.804 119.122 728.027C120.763 722.567 124.429 712.584 126.849 707.471C121.244 714.393 115.799 722.716 111.256 730.425C111.325 730.357 105.732 737.805 105.164 738.515C104.564 737.654 104.234 735.114 104.158 734.011C102.643 712.048 99.7118 690.341 97.2753 668.484C96.7397 665.948 96.4609 663.775 95.2349 661.504L94.9954 674.136C93.7141 680.648 94.465 700.664 94.373 708.216C94.344 710.599 93.3669 712.504 93.379 714.918C93.4357 726.176 93.3497 737.944 93.8934 749.17C92.279 745.296 79.8144 725.073 77.0187 721.741L76.8656 720.788C74.4117 717.003 72.8523 713.925 70.8181 709.934C71.5641 713.18 72.486 717.595 73.066 720.993C73.0809 721.081 74.6895 722.319 74.9079 722.481C73.3508 727.817 87.5012 755.9 90.7005 761.729L95.7576 770.766C95.6886 776.333 94.0488 783.31 94.5177 788.332C84.5752 788.278 78.3829 790.023 66.689 789.297C43.2752 787.844 29.095 782.559 12.7492 764.802C8.37416 760.049 4.70569 754.42 0.423659 749.638L0 749.171L0 644.28C5.72357 638.095 9.7946 633.992 15.7118 628.05Z"/><path fill="#C6F16B" d="M853.404 622.75C848.729 604.575 848.703 585.776 852.24 567.569C856.627 544.994 870.258 528.423 889.777 516.711C910.03 505.435 935.665 493.255 959.163 498.891C997.095 507.989 1006.92 536.406 1017.53 569.515C1019.07 574.318 1021.39 584.976 1024 588.728L1024 755.626L1023.65 756.029C1020.19 760.04 1016.95 765.365 1013.48 769.701C1001.89 784.168 985.154 786.278 967.847 787.75C960.79 788.35 943.964 788.698 937.536 786.174C937.259 784.756 937.59 783.486 937.546 781.88C937.425 777.465 937.405 774.054 936.403 769.702C942.466 761.721 952.865 742.333 954.85 733.071C956.259 729.995 961.224 712.513 962.053 708.536L961.229 710.081C957.265 717.624 952.395 722.393 950.369 730.952C946.743 733.315 940.175 749.266 938.129 754.036C937.95 750.798 937.588 746.818 937.817 743.627C938.336 736.407 936.959 729.503 936.382 722.333C936.382 722.333 937.369 720.671 937.463 720.514C937.07 708.551 936.456 696.786 936.553 684.802C936.586 680.671 937.185 669.447 935.635 666.188L935.045 666.516C933.545 671.24 932.279 693.622 931.643 700.016C930.267 713.871 927.513 732.528 927.258 746.27C924.785 745.81 914.887 724.774 909.737 722.909C910.372 720.344 909.68 718.91 907.012 718.362L906.38 719.094C906.573 721.013 907.471 721.899 908.605 723.482C909.335 727.447 909.156 727.206 912.222 729.557C911.916 730.619 912.231 730.165 911.126 730.8C911.231 733.51 925.983 761.515 927.323 766.032C928.513 770.042 925.233 785.51 925.826 787.924C915.452 787.379 903.221 786.107 892.854 785.012C888.42 783.303 883.753 783.469 879.308 782.458C830.872 771.437 812.83 742.133 815.862 692.641C816.691 670.752 828.486 644.849 845.029 630.485C847.77 628.106 850.41 625.859 852.943 623.236L853.404 622.75Z"/><path fill="#F8EEDD" d="M722.876 532.903C721.1 533.56 719.999 534.185 718.145 533.911C715.835 532.235 715.716 527.984 715.78 525.315C715.981 516.995 714.405 508.733 717.531 500.88C721.557 500.464 723.332 502.691 724.004 506.229C724.722 510.017 724.17 530.995 722.876 532.903Z"/><path fill="#F8EEDD" d="M742.88 532.138C742.076 532.214 737.898 532.682 737.649 531.718C735.466 523.262 736.617 513.087 736.924 504.332C736.979 502.761 738.457 501.761 739.528 500.94C740.975 501.044 742.724 500.839 743.519 502.116C746.451 506.832 745.976 528.875 742.88 532.138Z"/><path fill="#CC9883" d="M285.955 643.211C288.512 643.242 290.995 643.127 293.548 643.031C284.427 670.075 285.562 713.711 291.037 741.675C294.138 756.988 298.588 771.996 304.337 786.523C302.256 786.573 297.893 786.049 295.32 785.984C289.315 785.832 283.539 785.799 277.51 785.705C273.582 785.643 269.501 784.941 265.493 784.905C261.828 784.872 257.004 785.415 253.247 785.617C252.735 785.296 252.223 784.974 251.711 784.652C236.915 785.733 220.809 783.701 205.84 784.051C203.979 784.094 197.689 783.241 196.662 783.453C193.201 784.167 192.871 785.3 188.609 783.124C186.182 781.972 182.174 783.701 179.314 783.623C172.985 783.451 170.685 780.988 164.74 783.742C163.548 782.532 163.443 782.211 161.821 781.701L161.391 781.973L162.656 783.1C161.753 783.942 157.814 781.964 155.983 782.062C148.792 782.448 141.197 782.1 134.035 782.311C142.288 781.274 155.26 778.049 163.177 774.986C180.205 768.398 199.022 752.86 206.585 735.839C215.833 715.023 214.33 688.408 210.112 666.351C209.146 661.298 206.086 653.669 204.18 648.745C206.305 650.488 206.884 650.612 209.487 651.706C210.087 653.552 210.648 655.984 212.298 656.932L213.317 656.556C214.85 654.175 215.058 622.93 214.448 618.292C214.184 616.287 215.451 615.149 216.022 612.476C215.188 611.029 215.256 611.568 215.107 610.055C216.065 608.837 216.925 607.767 217.943 606.599L217.222 604.669C223.033 596.273 225.902 595.599 235.363 596.419C234.028 587.486 236.003 569.377 235.263 559.753C234.897 554.998 247.086 540.288 251.477 536.95C255.637 539.881 267.557 551.536 268.295 556.78C270.008 568.955 269.815 583.487 269.107 595.794C270.988 597.478 274.978 596.646 277.379 596.387C279.429 599.317 280.498 598.981 282.665 601.43L282.352 602.943C288.233 611.908 286.599 620.713 286.487 630.773C286.442 634.828 286.728 639.272 285.955 643.211ZM249.763 602.302L245.637 606.751C245.861 609.18 245.708 613.508 246.753 615.346C248.238 616.544 250.132 616.269 252.122 616.285C252.818 615.992 253.63 615.908 253.758 615.203C254.63 610.424 254.15 605.012 249.763 602.302Z"/><path fill="#CC9883" d="M320.054 581.506C319.254 579.624 318.783 578.946 318.816 576.966C319.744 575.258 320.823 573.639 320.775 571.72L319.687 570.942C319.885 566.145 324.453 559.858 327.538 556.255C332.277 550.721 335.116 549.564 341.442 553.774C334.821 560.798 325.648 573.436 320.054 581.506Z"/><path fill="#F8EEDD" d="M537.902 830.619C537.192 828.644 535.542 821.77 535.142 819.321C535.526 818.96 535.91 818.6 536.293 818.239C535.565 814.91 532.788 810.089 533.593 806.673C535.119 800.19 530.165 804.718 533.068 797.475C533.852 795.518 531.919 788.41 532.06 785.376C532.46 776.758 532.139 767.917 532.017 759.293C531.909 753.711 533.804 748.506 532.616 743.012C532.526 742.599 532.355 741.31 532.5 740.805C535.03 738.62 547.217 733.447 549.529 732.412C572.414 722.376 593.929 709.47 613.557 694.004C616.798 691.474 619.417 688.798 622.505 686.102C624.098 684.605 627.207 683.199 628.678 681.748C638.978 671.586 650.606 663.108 658.807 651.03C661.373 647.252 665.022 643.681 667.65 639.792C680 621.54 688.233 600.82 691.778 579.07C692.566 574.016 693.539 568.577 693.34 563.506C693.284 562.089 693.165 562.814 694.291 561.381L694.625 562.027C697.966 568.371 703.877 574.332 707.736 580.624C715.616 593.471 722.274 607.134 727.417 621.303C728.266 623.641 727.402 625.585 727.972 627.476L726.511 627.842C727.622 634.282 725.915 645.377 724.806 651.743C723.905 652.836 724.267 652.509 723.089 653.246C723.934 654.75 724.917 653.955 724.221 655.513C722.973 658.308 721.134 657.774 722.664 660.975C719.81 670.119 714.439 678.869 712.272 688.529C711.791 690.676 708.982 694.719 708.176 696.965C707.276 701.908 704.461 702.684 703.133 705.269C705.566 714.192 665.185 758.893 656.119 766.028C622.855 792.206 584.718 810.925 545.498 826.555C541.966 827.963 540.806 825.635 538.51 829.554C538.304 829.907 538.101 830.262 537.902 830.619Z"/><path fill="#CC9883" d="M295.572 633.612C295.544 632.242 295.513 631.571 295.819 630.211C296.659 626.476 295.456 620.53 295.35 616.306C295.152 608.459 298.417 605.185 303.515 599.679C306.194 596.785 308.699 594.16 312.549 594.102C310.537 598.973 308.267 603.648 306.093 608.456C302.952 615.403 299.154 627.35 295.572 633.612Z"/><path fill="#FEFCEA" d="M245.637 606.751L249.763 602.302C254.15 605.012 254.63 610.424 253.758 615.203C253.63 615.908 252.818 615.992 252.122 616.285C250.132 616.269 248.238 616.544 246.753 615.346C245.708 613.508 245.861 609.18 245.637 606.751Z"/><path fill="#CC9883" d="M342.895 609.876C344.807 607.832 345.976 606.428 348.266 604.778L344.082 610.746L342.895 609.876Z"/><path fill="#CC9883" d="M344.082 610.746C333.568 627.264 322.191 652.579 314.929 670.778C311.278 679.93 310.223 687.082 305.568 697.616C306.441 705.185 301.848 705.24 302.254 709.886C302.916 717.458 298.361 724.597 297.639 732.987C297.344 736.417 296.537 745.958 295.604 748.425L295.049 748.225C294.048 745.925 292.313 743.863 294.089 742.02L295.744 742.413C295.835 740.448 293.818 740.393 293.967 738.368C294.803 727.002 293.775 715.711 295.185 704.35C295.229 703.999 295.578 697.235 295.462 697.446C298.838 691.279 298.697 684.23 300.837 677.61C307.416 657.688 317.012 639.295 330.018 622.833C331.852 620.511 340.996 610.074 342.895 609.876L344.082 610.746Z"/><path fill="#CC9883" d="M181.823 615.64C184.926 614.079 186.953 612.551 190.334 613.328C194.414 616.942 198.8 621.056 201.939 625.544C202.621 626.52 202.548 629.571 202.721 630.852C203.367 635.633 202.127 642.419 203.266 646.923C196.313 636.961 188.866 628.536 180.295 619.989L181.823 615.64Z"/><path fill="#CC9883" d="M771.973 624.555C772.178 626.172 772.113 626.066 771.343 627.532C772.213 630.238 773.081 630.105 772.695 632.31C771.057 632.914 771.909 632.8 770.029 632.431C766.87 630.092 769.966 626.391 771.973 624.555Z"/><path fill="#CC9883" d="M727.972 627.476L728.966 627.842C728.062 631.776 728.586 630.069 729.43 633.22C731.003 639.093 732.352 652.586 731.538 658.251C731.168 658.727 730.707 659.32 730.156 660.029C729.21 665.984 728.861 670.399 726.563 676.081L727.384 677.036C722.585 688.901 721.362 701.75 713.38 712.6C711.416 715.269 709.929 719.598 707.904 722.374C701.234 731.373 697.048 741.934 688.507 749.289C686.673 750.869 689.117 751.102 687.16 752.713C682.669 753.563 684.545 755.271 682.078 757.843C678.041 762.052 673.122 765.847 668.711 769.721C640.485 794.31 607.322 812.569 571.45 823.272C566.686 824.648 561.975 826.035 557.128 827.112C550.746 828.531 543.489 827.193 537.902 830.619C538.101 830.262 538.304 829.907 538.51 829.554C540.806 825.635 541.966 827.963 545.498 826.555C584.718 810.925 622.855 792.206 656.119 766.028C665.185 758.893 705.566 714.192 703.133 705.269C704.461 702.684 707.276 701.908 708.176 696.965C708.982 694.719 711.791 690.676 712.272 688.529C714.439 678.869 719.81 670.119 722.664 660.975C721.134 657.774 722.973 658.308 724.221 655.513C724.917 653.955 723.934 654.75 723.089 653.246C724.267 652.509 723.905 652.836 724.806 651.743C725.915 645.377 727.622 634.282 726.511 627.842L727.972 627.476Z"/><path fill="#F8EEDD" d="M728.966 627.842C738.738 651.949 741.954 686.304 740.489 712.218C738.915 740.082 731.238 765.931 720.608 791.635C715.8 800.146 701.463 828.198 694.415 833.77C690.512 835.573 685.076 839.484 681.187 841.821C673.027 846.709 664.727 851.356 656.296 855.757C647.296 860.491 635.259 864.611 626.794 869.668C624.408 869.189 622.081 871.021 619.855 872.063C602.28 880.293 581.882 884.178 564.421 892.27C574.166 889.99 584.178 889.2 594.055 887.533C617.227 883.622 638.316 875.182 659.47 865.267C662.671 863.767 670.923 858.645 673.468 858.591C669.492 864.471 663.314 868.746 658.045 873.225C634.609 893.143 607.427 907.366 578.036 916.247C577.683 916.354 577.185 916.352 576.801 916.363C575.105 911.548 571.771 908.109 569.355 903.809C567.94 901.465 567.006 898.028 565.547 895.797C560.57 888.19 556.542 878.844 551.559 871.448L551.084 870.751L551.863 869.508C547.393 863.883 543.737 848.541 541.492 841.435C540.324 837.739 538.714 834.465 537.902 830.619C543.489 827.193 550.746 828.531 557.128 827.112C561.975 826.035 566.686 824.648 571.45 823.272C607.322 812.569 640.485 794.31 668.711 769.721C673.122 765.847 678.041 762.052 682.078 757.843C684.545 755.271 682.669 753.563 687.16 752.713C689.117 751.102 686.673 750.869 688.507 749.289C697.048 741.934 701.234 731.373 707.904 722.374C709.929 719.598 711.416 715.269 713.38 712.6C721.362 701.75 722.585 688.901 727.384 677.036L726.563 676.081C728.861 670.399 729.21 665.984 730.156 660.029C730.707 659.32 731.168 658.727 731.538 658.251C732.352 652.586 731.003 639.093 729.43 633.22C728.586 630.069 728.062 631.776 728.966 627.842Z"/><path fill="#CC9883" d="M383.284 880.71C381.768 877.773 377.669 872.206 376.391 869.563C374.148 864.923 359.996 833.837 361.563 830.887L362.035 830.018C360.998 828.975 360.979 829.09 359.685 828.311C357.919 824.154 359.924 821.758 359.486 818.25C358.639 818.835 359.068 818.612 358.219 818.953C355.929 812.283 357.855 809.09 357.594 803.388C357.257 802.895 356.925 802.399 356.6 801.899C354.388 798.501 355.702 796.978 356.688 792.454C356.02 791.943 355.803 791.763 355.205 791.222C354.913 785.481 355.732 772.766 356.617 767.026C355.962 766.612 356.343 766.798 355.451 766.488C355.525 765.467 355.968 759.692 356.175 759.3C358.85 754.244 356.701 752.566 356.999 747.995C357.622 747.13 357.369 747.317 358.095 746.795C358.819 746.275 357.025 742.828 357.375 741.449C361.889 737.2 358.613 733.147 359.766 731.613C364.258 725.637 362.633 722.571 363.341 715.071C364.685 713.659 365.368 713.174 365.967 711.305C364.969 706.447 367.242 703.793 368.77 699.242C369.919 695.821 370.967 691.438 372.392 688.25C378.594 674.372 385.635 660.764 393.609 647.82C394.792 645.911 401.374 638.721 403.288 636.457C403.396 638.503 390.837 666.879 389.276 669.715C387.106 673.657 387.543 675.741 386.962 679.488L385.377 680.635C383.662 688.872 379.778 697.141 378.747 705.671C378.643 706.525 375.896 711.02 375.281 712.856C378.844 719.846 371.059 717.651 373.906 724.739C373.625 726.173 373.093 726.052 371.421 727.193C370.436 729.655 371.891 735.271 371.316 737.596C368.741 747.998 367.581 757.727 367.456 768.455C367.447 769.227 366.309 769.02 366.265 770.56C366.182 773.465 368.207 778.52 367.721 781.194L366.413 781.936C366.074 783.09 366.99 784.653 367.399 785.798C367.731 786.728 367.958 787.382 367.641 788.386C365.86 794.04 370.647 821.292 372.213 828.279C371.521 829.469 371.463 829.383 371.546 830.735C372.657 832.099 372.917 832.105 373.393 833.72L372.236 835.671C372.149 838.157 373.546 836.012 374.698 839.008C374.205 839.932 373.767 840.499 373.071 841.283C375.127 843.431 375.457 843.75 376.135 846.709C377.692 853.506 379.714 860.05 381.917 866.645C383.049 870.033 382.715 874.157 384.866 877.418C385.902 878.988 387.999 883.839 386.812 885.522C385.264 884.63 384.235 882.345 383.284 880.71Z"/><path fill="#7A5C37" d="M95.2349 661.504C96.4609 663.775 96.7397 665.948 97.2753 668.484C96.7446 670.176 96.1139 672.913 94.9954 674.136L95.2349 661.504Z"/><path fill="#815A38" d="M908.605 723.482L909.737 722.909C914.887 724.774 924.785 745.81 927.258 746.27C927.513 732.528 930.267 713.871 931.643 700.016C932.279 693.622 933.545 671.24 935.045 666.516L935.635 666.188C937.185 669.447 936.586 680.671 936.553 684.802C936.456 696.786 937.07 708.551 937.463 720.514C937.369 720.671 936.382 722.333 936.382 722.333C936.959 729.503 938.336 736.407 937.817 743.627C937.588 746.818 937.95 750.798 938.129 754.036C940.175 749.266 946.743 733.315 950.369 730.952L951.546 730.377C952.194 727.944 954.144 722.546 955.897 720.777L956.323 720.924L956.565 721.833L955.306 723.256C955.547 724.864 955.412 724.266 956.376 725.75C955.664 727.781 954.307 730.983 954.85 733.071C952.865 742.333 942.466 761.721 936.403 769.702C937.405 774.054 937.425 777.465 937.546 781.88C937.59 783.486 937.259 784.756 937.536 786.174C937.47 786.337 937.386 786.494 937.337 786.664C936.427 789.816 938.942 828.66 939.114 835.184C939.22 839.185 938.764 843.221 938.937 847.209C939.02 849.111 939.598 850.893 939.648 852.806C939.79 858.227 939.35 863.672 939.522 869.095C939.636 872.677 941.04 876.689 940.884 880.146C940.826 881.437 939.747 882.21 938.764 882.875C935.53 885.066 931.268 886.581 927.348 885.686C926.482 885.488 925.34 884.995 924.867 884.212C921.125 878.016 924.547 810.575 925.105 799.744C925.192 798.065 926.565 789.353 926.309 788.634C926.213 788.364 925.987 788.161 925.826 787.924C925.233 785.51 928.513 770.042 927.323 766.032C925.983 761.515 911.231 733.51 911.126 730.8C912.231 730.165 911.916 730.619 912.222 729.557C909.156 727.206 909.335 727.447 908.605 723.482Z"/><path fill="#815A38" d="M97.2753 668.484C99.7118 690.341 102.643 712.048 104.158 734.011C104.234 735.114 104.564 737.654 105.164 738.515C105.732 737.805 111.325 730.357 111.256 730.425C111.696 730.653 111.392 730.539 112.225 730.521L113.503 728.599C114.588 726.943 114.539 726.665 116.365 725.691C118.218 725.684 117.463 725.368 118.878 726.206L118.374 727.671L119.122 728.027C115.414 737.804 107.299 747.763 105.39 758.035C104.982 760.23 107.306 766.028 106.575 768.727C106.319 771.49 106.666 780.629 107.209 783.318C105.366 786.26 107.938 804.942 108.01 809.983C108.134 818.804 108.464 828.21 108.861 837.044C109.362 843.536 110.669 867.212 109.469 872.295C108.6 872.532 108.301 872.605 107.513 873.063C108.477 873.52 108.191 873.408 109.238 873.608C109.531 875.853 109.596 876.157 109.333 878.367C105.364 882.653 97.566 881.793 93.3544 877.664C91.0791 875.433 93.4525 866.253 92.9145 863.002C92.5725 854.314 92.616 845.894 92.5337 837.224C92.3426 827.446 93.7417 817.617 93.9413 807.935C94.0571 802.319 94.7801 793.729 94.5177 788.332C94.0488 783.31 95.6886 776.333 95.7576 770.766L90.7005 761.729C87.5012 755.9 73.3508 727.817 74.9079 722.481C74.6895 722.319 73.0809 721.081 73.066 720.993C72.486 717.595 71.5641 713.18 70.8181 709.934C72.8523 713.925 74.4117 717.003 76.8656 720.788L77.0187 721.741C79.8144 725.073 92.279 745.296 93.8934 749.17C93.3497 737.944 93.4357 726.176 93.379 714.918C93.3669 712.504 94.344 710.599 94.373 708.216C94.465 700.664 93.7141 680.648 94.9954 674.136C96.1139 672.913 96.7446 670.176 97.2753 668.484Z"/><path fill="#DED7ED" d="M770.452 685.226L769.757 685.247C769.302 683.434 769.258 680.71 769.151 678.772L770.11 679.272C771.105 681.061 770.909 683.307 770.452 685.226Z"/><path fill="#7A5C37" d="M119.122 728.027L118.374 727.671L118.878 726.206C117.463 725.368 118.218 725.684 116.365 725.691C114.539 726.665 114.588 726.943 113.503 728.599L112.225 730.521C111.392 730.539 111.696 730.653 111.256 730.425C115.799 722.716 121.244 714.393 126.849 707.471C124.429 712.584 120.763 722.567 119.122 728.027Z"/><path fill="#7A5C37" d="M950.369 730.952C952.395 722.393 957.265 717.624 961.229 710.081L962.053 708.536C961.224 712.513 956.259 729.995 954.85 733.071C954.307 730.983 955.664 727.781 956.376 725.75C955.412 724.266 955.547 724.864 955.306 723.256L956.565 721.833L956.323 720.924L955.897 720.777C954.144 722.546 952.194 727.944 951.546 730.377L950.369 730.952Z"/><path fill="#6F493A" d="M909.737 722.909L908.605 723.482C907.471 721.899 906.573 721.013 906.38 719.094L907.012 718.362C909.68 718.91 910.372 720.344 909.737 722.909Z"/><path fill="#DED7ED" d="M0 749.171L0.423659 749.638C4.70569 754.42 8.37416 760.049 12.7492 764.802C29.095 782.559 43.2752 787.844 66.689 789.297C78.3829 790.023 84.5752 788.278 94.5177 788.332C94.7801 793.729 94.0571 802.319 93.9413 807.935C93.7417 817.617 92.3426 827.446 92.5337 837.224C92.616 845.894 92.5725 854.314 92.9145 863.002C93.4525 866.253 91.0791 875.433 93.3544 877.664C97.566 881.793 105.364 882.653 109.333 878.367C109.596 876.157 109.531 875.853 109.238 873.608C108.191 873.408 108.477 873.52 107.513 873.063C108.301 872.605 108.6 872.532 109.469 872.295C110.669 867.212 109.362 843.536 108.861 837.044C108.464 828.21 108.134 818.804 108.01 809.983C107.938 804.942 105.366 786.26 107.209 783.318C111.855 781.823 127.862 782.497 134.035 782.311C141.197 782.1 148.792 782.448 155.983 782.062C157.814 781.964 161.753 783.942 162.656 783.1L161.391 781.973L161.821 781.701C163.443 782.211 163.548 782.532 164.74 783.742C170.685 780.988 172.985 783.451 179.314 783.623C182.174 783.701 186.182 781.972 188.609 783.124C192.871 785.3 193.201 784.167 196.662 783.453C197.689 783.241 203.979 784.094 205.84 784.051C220.809 783.701 236.915 785.733 251.711 784.652C252.223 784.974 252.735 785.296 253.247 785.617C257.004 785.415 261.828 784.872 265.493 784.905C269.501 784.941 273.582 785.643 277.51 785.705C283.539 785.799 289.315 785.832 295.32 785.984C297.893 786.049 302.256 786.573 304.337 786.523C308.218 798.362 314.065 808.243 320.476 819.282C370.831 905.985 478.792 944.712 574.025 917.546C574.962 917.279 574.869 917.253 575.718 916.726L576.801 916.363C577.185 916.352 577.683 916.354 578.036 916.247C607.427 907.366 634.609 893.143 658.045 873.225C663.314 868.746 669.492 864.471 673.468 858.591C681.8 849.626 687.242 844.067 694.415 833.77C701.463 828.198 715.8 800.146 720.608 791.635C721.622 791.059 721.244 791.202 722.448 790.979L723.246 791.661C725.672 791.754 727.835 791.967 730.241 792.201C736.868 788.915 736.309 792.57 742.372 792.411C743.044 791.384 742.689 791.67 743.726 791.112C743.889 791.584 744.052 792.056 744.214 792.529L745.216 792.415L745.175 791.19C747.452 790.625 748.414 792.114 751.24 792.447C751.218 791.371 751.178 791.935 751.397 790.759L752.761 790.52C753.295 791.323 753.772 791.985 754.349 792.758L754.661 792.66C756.164 789.932 756.797 791.581 759.84 791.56L760.003 790.266L760.571 790.204L761.651 791.8C762.9 792.156 763.682 792.558 764.865 792.114L764.267 790.586L764.659 790.03C767.542 790.004 767.532 792.138 770.396 792.28C771.222 791.338 771.554 790.949 772.499 790.14C775.142 791.044 774.376 794.833 780.512 790.89C781.855 790.027 784.448 792.268 786.543 792.564L786.84 791.539C788.497 790.666 798.25 792.06 802.09 791.184L802.639 792.339C805.251 792.32 804.143 791.019 807.209 790.032L807.822 792.056C809.377 792.223 810.673 791.484 812.241 790.861L812.925 790.586L813.125 791.576C814.489 792.304 826.97 792.274 829.469 792.32C829.844 791.349 829.679 791.796 829.13 790.352L829.739 789.665C830.694 790.271 830.767 790.373 831.408 791.266L831.947 792.03C833.551 791.97 833.167 791.352 834.842 789.709C835.816 791.098 835.772 791.201 837.272 792.113C841.834 792.345 840.226 788.081 846.55 791.643L847.157 791.991C848.351 791.524 848.821 791.278 849.965 790.712L850.839 791.051L850.127 792.303C851.677 792.514 853.157 791.479 854.703 790.773L855.14 791.771C856.977 792.741 859.986 792.206 861.825 791.482C866.798 789.525 875.56 794.473 880.323 791.123L879.881 792.033C880.99 792.414 884.997 789.952 886.591 789.966C886.427 789.965 889.551 790.852 889.672 790.886C890.465 790.191 891.166 788.8 890.776 787.767C889.828 788.417 890.232 788.337 889.204 788.429C890.317 787.126 891.56 786.134 892.854 785.012C903.221 786.107 915.452 787.379 925.826 787.924C925.987 788.161 926.213 788.364 926.309 788.634C926.565 789.353 925.192 798.065 925.105 799.744C924.547 810.575 921.125 878.016 924.867 884.212C925.34 884.995 926.482 885.488 927.348 885.686C931.268 886.581 935.53 885.066 938.764 882.875C939.747 882.21 940.826 881.437 940.884 880.146C941.04 876.689 939.636 872.677 939.522 869.095C939.35 863.672 939.79 858.227 939.648 852.806C939.598 850.893 939.02 849.111 938.937 847.209C938.764 843.221 939.22 839.185 939.114 835.184C938.942 828.66 936.427 789.816 937.337 786.664C937.386 786.494 937.47 786.337 937.536 786.174C943.964 788.698 960.79 788.35 967.847 787.75C985.154 786.278 1001.89 784.168 1013.48 769.701C1016.95 765.365 1020.19 760.04 1023.65 756.029L1024 755.626L1024 1024L0 1024L0 749.171Z"/><path fill="#CC9883" d="M564.421 892.27C581.882 884.178 602.28 880.293 619.855 872.063C622.081 871.021 624.408 869.189 626.794 869.668C635.259 864.611 647.296 860.491 656.296 855.757C664.727 851.356 673.027 846.709 681.187 841.821C685.076 839.484 690.512 835.573 694.415 833.77C687.242 844.067 681.8 849.626 673.468 858.591C670.923 858.645 662.671 863.767 659.47 865.267C638.316 875.182 617.227 883.622 594.055 887.533C584.178 889.2 574.166 889.99 564.421 892.27Z"/></svg>